REM MD5 a897d9799941a7a399f5040fd2f73739
FILE "SuperLite 1500 Series - Oekaki Puzzle 5 (Japan).bin" BINARY
  TRACK 01 MODE2/2352
    INDEX 01 00:00:00
  TRACK 02 AUDIO
    INDEX 00 00:09:10
    INDEX 01 00:11:10
  TRACK 03 AUDIO
    INDEX 00 02:36:33
    INDEX 01 02:38:33
  TRACK 04 AUDIO
    INDEX 00 05:46:71
    INDEX 01 05:48:71
  TRACK 05 AUDIO
    INDEX 00 16:01:02
    INDEX 01 16:03:02
  TRACK 06 AUDIO
    INDEX 00 26:15:09
    INDEX 01 26:17:09
REM LEADOUT 36:29:14
